Raleway-Light-OTF.ufo
<glyph name="comma" format="1">
  <advance width="238"/>
  <unicode hex="002C"/>
  <outline>
    <contour>
      <point x="124" y="-81" type="line"/>
      <point x="145" y="-2" type="line"/>
      <point x="145" y="85" type="line"/>
      <point x="94" y="85" type="line"/>
      <point x="94" y="-2" type="line"/>
      <point x="112" y="-2" type="line"/>
      <point x="97" y="-81" type="line"/>
    </contour>
  </outline>
</glyph>
<glyph name="colon" format="1">
  <advance width="177"/>
  <unicode hex="003A"/>
  <outline>
    <contour>
      <point x="110" y="432" type="line"/>
      <point x="110" y="517" type="line"/>
      <point x="67" y="517" type="line"/>
      <point x="67" y="432" type="line"/>
    </contour>
    <contour>
      <point x="110" y="0" type="line"/>
      <point x="110" y="85" type="line"/>
      <point x="67" y="85" type="line"/>
      <point x="67" y="0" type="line"/>
    </contour>
  </outline>
</glyph>
<glyph name="at" format="1">
  <advance width="834"/>
  <unicode hex="0040"/>
  <outline>
    <contour>
      <point x="416" y="603" type="curve" smooth="yes"/>
      <point x="225" y="603"/>
      <point x="48" y="453"/>
      <point x="48" y="230" type="curve" smooth="yes"/>
      <point x="48" y="15"/>
      <point x="212" y="-146"/>
      <point x="411" y="-146" type="curve" smooth="yes"/>
      <point x="467" y="-146"/>
      <point x="523" y="-133"/>
      <point x="576" y="-106" type="curve"/>
      <point x="564" y="-79" type="line"/>
      <point x="516" y="-104"/>
      <point x="466" y="-117"/>
      <point x="411" y="-117" type="curve" smooth="yes"/>
      <point x="224" y="-117"/>
      <point x="78" y="37"/>
      <point x="78" y="230" type="curve" smooth="yes"/>
      <point x="78" y="430"/>
      <point x="234" y="574"/>
      <point x="415" y="574" type="curve" smooth="yes"/>
      <point x="601" y="574"/>
      <point x="747" y="419"/>
      <point x="747" y="223" type="curve" smooth="yes"/>
      <point x="747" y="147"/>
      <point x="723" y="15"/>
      <point x="637" y="15" type="curve" smooth="yes"/>
      <point x="591" y="15"/>
      <point x="585" y="52"/>
      <point x="585" y="111" type="curve" smooth="yes"/>
      <point x="585" y="249" type="line" smooth="yes"/>
      <point x="585" y="346"/>
      <point x="568" y="453"/>
      <point x="426" y="453" type="curve" smooth="yes"/>
      <point x="366" y="453"/>
      <point x="312" y="432"/>
      <point x="265" y="401" type="curve"/>
      <point x="281" y="370" type="line"/>
      <point x="321" y="400"/>
      <point x="371" y="418"/>
      <point x="422" y="418" type="curve" smooth="yes"/>
      <point x="522" y="418"/>
      <point x="549" y="348"/>
      <point x="549" y="247" type="curve"/>
      <point x="527" y="255"/>
      <point x="478" y="270"/>
      <point x="419" y="270" type="curve" smooth="yes"/>
      <point x="332" y="270"/>
      <point x="235" y="239"/>
      <point x="235" y="139" type="curve" smooth="yes"/>
      <point x="235" y="63"/>
      <point x="292" y="8"/>
      <point x="384" y="8" type="curve" smooth="yes"/>
      <point x="453" y="8"/>
      <point x="516" y="40"/>
      <point x="552" y="79" type="curve"/>
      <point x="557" y="28"/>
      <point x="567" y="-16"/>
      <point x="633" y="-16" type="curve" smooth="yes"/>
      <point x="765" y="-16"/>
      <point x="777" y="164"/>
      <point x="777" y="222" type="curve" smooth="yes"/>
      <point x="777" y="443"/>
      <point x="613" y="603"/>
    </contour>
    <contour>
      <point x="480" y="64" type="curve" smooth="yes"/>
      <point x="455" y="52"/>
      <point x="419" y="42"/>
      <point x="386" y="42" type="curve" smooth="yes"/>
      <point x="322" y="42"/>
      <point x="272" y="80"/>
      <point x="272" y="141" type="curve" smooth="yes"/>
      <point x="272" y="215"/>
      <point x="343" y="238"/>
      <point x="416" y="238" type="curve" smooth="yes"/>
      <point x="484" y="238"/>
      <point x="532" y="217"/>
      <point x="548" y="215" type="curve"/>
      <point x="548" y="173" type="line" smooth="yes"/>
      <point x="548" y="134"/>
      <point x="540" y="92"/>
    </contour>
  </outline>
</glyph>
<glyph name="Q" format="1">
  <advance width="752"/>
  <unicode hex="0051"/>
  <outline>
    <contour>
      <point x="632" y="0" type="line"/>
      <point x="685" y="0" type="line"/>
      <point x="606" y="95" type="line"/>
      <point x="670" y="162"/>
      <point x="709" y="255"/>
      <point x="709" y="355" type="curve" smooth="yes"/>
      <point x="709" y="532"/>
      <point x="575" y="715"/>
      <point x="377" y="715" type="curve" smooth="yes"/>
      <point x="188" y="715"/>
      <point x="44" y="544"/>
      <point x="44" y="355" type="curve" smooth="yes"/>
      <point x="44" y="173"/>
      <point x="179" y="-4"/>
      <point x="376" y="-5" type="curve" smooth="yes"/>
      <point x="452" y="-5"/>
      <point x="521" y="22"/>
      <point x="576" y="67" type="curve"/>
    </contour>
    <contour>
      <point x="377" y="42" type="curve" smooth="yes"/>
      <point x="211" y="42"/>
      <point x="95" y="192"/>
      <point x="95" y="355" type="curve" smooth="yes"/>
      <point x="95" y="510"/>
      <point x="207" y="668"/>
      <point x="377" y="668" type="curve" smooth="yes"/>
      <point x="539" y="668"/>
      <point x="657" y="518"/>
      <point x="657" y="355" type="curve" smooth="yes"/>
      <point x="657" y="274"/>
      <point x="627" y="193"/>
      <point x="574" y="133" type="curve"/>
      <point x="514" y="206" type="line"/>
      <point x="461" y="206" type="line"/>
      <point x="545" y="104" type="line"/>
      <point x="500" y="66"/>
      <point x="443" y="42"/>
    </contour>
  </outline>
</glyph>
<glyph name="i" format="1">
  <advance width="207"/>
  <unicode hex="0069"/>
  <outline>
    <contour>
      <point x="128" y="0" type="line"/>
      <point x="128" y="520" type="line"/>
      <point x="78" y="520" type="line"/>
      <point x="78" y="0" type="line"/>
    </contour>
    <contour>
      <point x="128" y="638" type="line"/>
      <point x="128" y="730" type="line"/>
      <point x="78" y="730" type="line"/>
      <point x="78" y="638" type="line"/>
    </contour>
  </outline>
</glyph>
<glyph name="y" format="1">
  <advance width="540"/>
  <unicode hex="0079"/>
  <outline>
    <contour>
      <point x="276" y="520" type="move" name="top"/>
    </contour>
    <contour>
      <point x="113" y="-222" type="line"/>
      <point x="120" y="-223"/>
      <point x="126" y="-223"/>
      <point x="131" y="-223" type="curve" smooth="yes"/>
      <point x="187" y="-223"/>
      <point x="218" y="-201"/>
      <point x="233" y="-164" type="curve" smooth="yes"/>
      <point x="518" y="520" type="line"/>
      <point x="469" y="520" type="line"/>
      <point x="276" y="49" type="line"/>
      <point x="69" y="520" type="line"/>
      <point x="17" y="520" type="line"/>
      <point x="249" y="0" type="line"/>
      <point x="186" y="-153"/>
      <point x="178" y="-164"/>
      <point x="163" y="-171" type="curve" smooth="yes"/>
      <point x="152" y="-176"/>
      <point x="141" y="-177"/>
      <point x="128" y="-177" type="curve" smooth="yes"/>
      <point x="123" y="-177"/>
      <point x="118" y="-177"/>
      <point x="113" y="-176" type="curve"/>
    </contour>
  </outline>
</glyph>
<glyph name="paragraph" format="1">
  <advance width="588"/>
  <unicode hex="00B6"/>
  <outline>
    <contour>
      <point x="33" y="473" type="curve" smooth="yes"/>
      <point x="33" y="327"/>
      <point x="136" y="240"/>
      <point x="301" y="237" type="curve"/>
      <point x="301" y="-80" type="line"/>
      <point x="346" y="-80" type="line"/>
      <point x="346" y="237" type="line"/>
      <point x="426" y="237" type="line"/>
      <point x="426" y="-80" type="line"/>
      <point x="471" y="-80" type="line"/>
      <point x="471" y="669" type="line"/>
      <point x="541" y="669" type="line"/>
      <point x="541" y="710" type="line"/>
      <point x="315" y="710" type="line" smooth="yes"/>
      <point x="138" y="710"/>
      <point x="33" y="621"/>
    </contour>
    <contour>
      <point x="78" y="474" type="curve" smooth="yes"/>
      <point x="78" y="595"/>
      <point x="156" y="668"/>
      <point x="301" y="669" type="curve"/>
      <point x="301" y="279" type="line"/>
      <point x="181" y="285"/>
      <point x="78" y="341"/>
    </contour>
    <contour>
      <point x="426" y="279" type="line"/>
      <point x="346" y="279" type="line"/>
      <point x="346" y="669" type="line"/>
      <point x="426" y="669" type="line"/>
    </contour>
  </outline>
</glyph>
<glyph name="questiondown" format="1">
  <advance width="466"/>
  <unicode hex="00BF"/>
  <outline>
    <contour>
      <point x="262" y="313" type="line"/>
      <point x="262" y="208"/>
      <point x="233" y="183"/>
      <point x="178" y="157" type="curve" smooth="yes"/>
      <point x="108" y="124"/>
      <point x="34" y="88"/>
      <point x="34" y="-24" type="curve" smooth="yes"/>
      <point x="34" y="-150"/>
      <point x="128" y="-213"/>
      <point x="226" y="-213" type="curve" smooth="yes"/>
      <point x="311" y="-213"/>
      <point x="398" y="-167"/>
      <point x="434" y="-84" type="curve"/>
      <point x="398" y="-62" type="line"/>
      <point x="367" y="-125"/>
      <point x="301" y="-170"/>
      <point x="226" y="-170" type="curve" smooth="yes"/>
      <point x="152" y="-170"/>
      <point x="79" y="-124"/>
      <point x="79" y="-27" type="curve" smooth="yes"/>
      <point x="79" y="77"/>
      <point x="164" y="104"/>
      <point x="221" y="136" type="curve" smooth="yes"/>
      <point x="275" y="167"/>
      <point x="306" y="210"/>
      <point x="306" y="313" type="curve"/>
    </contour>
    <contour>
      <point x="261" y="506" type="line"/>
      <point x="261" y="408" type="line"/>
      <point x="305" y="408" type="line"/>
      <point x="305" y="506" type="line"/>
    </contour>
  </outline>
</glyph>
<glyph name="Aacute" format="1">
  <advance width="675"/>
  <unicode hex="00C1"/>
  <outline>
    <contour>
      <point x="14" y="0" type="line"/>
      <point x="69" y="0" type="line"/>
      <point x="168" y="234" type="line"/>
      <point x="507" y="234" type="line"/>
      <point x="606" y="0" type="line"/>
      <point x="660" y="0" type="line"/>
      <point x="360" y="710" type="line"/>
      <point x="316" y="710" type="line"/>
    </contour>
    <contour>
      <point x="180" y="276" type="line"/>
      <point x="338" y="648" type="line"/>
      <point x="493" y="276" type="line"/>
    </contour>
    <contour>
      <point x="421" y="917" type="line"/>
      <point x="363" y="917" type="line"/>
      <point x="302" y="832" type="line"/>
      <point x="337" y="816" type="line"/>
    </contour>
  </outline>
</glyph>
<glyph name="Atilde" format="1">
  <advance width="675"/>
  <unicode hex="00C3"/>
  <outline>
    <contour>
      <point x="14" y="0" type="line"/>
      <point x="69" y="0" type="line"/>
      <point x="168" y="234" type="line"/>
      <point x="507" y="234" type="line"/>
      <point x="606" y="0" type="line"/>
      <point x="660" y="0" type="line"/>
      <point x="360" y="710" type="line"/>
      <point x="316" y="710" type="line"/>
    </contour>
    <contour>
      <point x="180" y="276" type="line"/>
      <point x="338" y="648" type="line"/>
      <point x="493" y="276" type="line"/>
    </contour>
    <contour>
      <point x="399" y="834" type="curve" smooth="yes"/>
      <point x="478" y="834"/>
      <point x="491" y="905"/>
      <point x="491" y="917" type="curve"/>
      <point x="457" y="917" type="line"/>
      <point x="457" y="913"/>
      <point x="453" y="869"/>
      <point x="400" y="869" type="curve" smooth="yes"/>
      <point x="349" y="869"/>
      <point x="327" y="909"/>
      <point x="273" y="909" type="curve" smooth="yes"/>
      <point x="201" y="909"/>
      <point x="188" y="837"/>
      <point x="188" y="826" type="curve"/>
      <point x="222" y="826" type="line"/>
      <point x="222" y="831"/>
      <point x="229" y="874"/>
      <point x="273" y="874" type="curve" smooth="yes"/>
      <point x="314" y="874"/>
      <point x="340" y="834"/>
    </contour>
  </outline>
</glyph>
<glyph name="Aring" format="1">
  <advance width="675"/>
  <unicode hex="00C5"/>
  <outline>
    <contour>
      <point x="14" y="0" type="line"/>
      <point x="69" y="0" type="line"/>
      <point x="168" y="234" type="line"/>
      <point x="507" y="234" type="line"/>
      <point x="606" y="0" type="line"/>
      <point x="660" y="0" type="line"/>
      <point x="360" y="710" type="line"/>
      <point x="316" y="710" type="line"/>
    </contour>
    <contour>
      <point x="180" y="276" type="line"/>
      <point x="338" y="648" type="line"/>
      <point x="493" y="276" type="line"/>
    </contour>
    <contour>
      <point x="269" y="855" type="curve" smooth="yes"/>
      <point x="269" y="818"/>
      <point x="298" y="792"/>
      <point x="337" y="792" type="curve" smooth="yes"/>
      <point x="376" y="792"/>
      <point x="405" y="818"/>
      <point x="405" y="855" type="curve" smooth="yes"/>
      <point x="405" y="891"/>
      <point x="376" y="917"/>
      <point x="337" y="917" type="curve" smooth="yes"/>
      <point x="298" y="917"/>
      <point x="269" y="891"/>
    </contour>
    <contour>
      <point x="337" y="894" type="curve" smooth="yes"/>
      <point x="360" y="894"/>
      <point x="378" y="879"/>
      <point x="378" y="855" type="curve" smooth="yes"/>
      <point x="378" y="832"/>
      <point x="358" y="815"/>
      <point x="337" y="815" type="curve" smooth="yes"/>
      <point x="314" y="815"/>
      <point x="297" y="833"/>
      <point x="297" y="855" type="curve" smooth="yes"/>
      <point x="297" y="879"/>
      <point x="315" y="894"/>
    </contour>
  </outline>
</glyph>
<glyph name="AE" format="1">
  <advance width="962"/>
  <unicode hex="00C6"/>
  <outline>
    <contour>
      <point x="494" y="707" type="move" name="top"/>
    </contour>
    <contour>
      <point x="-27" y="0" type="line"/>
      <point x="30" y="0" type="line"/>
      <point x="181" y="234" type="line"/>
      <point x="448" y="234" type="line"/>
      <point x="448" y="0" type="line"/>
      <point x="917" y="0" type="line"/>
      <point x="917" y="46" type="line"/>
      <point x="498" y="46" type="line"/>
      <point x="498" y="339" type="line"/>
      <point x="854" y="339" type="line"/>
      <point x="854" y="386" type="line"/>
      <point x="498" y="386" type="line"/>
      <point x="498" y="664" type="line"/>
      <point x="908" y="664" type="line"/>
      <point x="908" y="710" type="line"/>
      <point x="434" y="710" type="line"/>
    </contour>
    <contour>
      <point x="205" y="280" type="line"/>
      <point x="445" y="646" type="line"/>
      <point x="445" y="280" type="line"/>
    </contour>
  </outline>
</glyph>
<glyph name="Eacute" format="1">
  <advance width="612"/>
  <unicode hex="00C9"/>
  <outline>
    <contour>
      <point x="423" y="917" type="line"/>
      <point x="365" y="917" type="line"/>
      <point x="304" y="832" type="line"/>
      <point x="339" y="816" type="line"/>
    </contour>
    <contour>
      <point x="144" y="46" type="line"/>
      <point x="144" y="341" type="line"/>
      <point x="505" y="341" type="line"/>
      <point x="505" y="385" type="line"/>
      <point x="144" y="385" type="line"/>
      <point x="144" y="664" type="line"/>
      <point x="557" y="664" type="line"/>
      <point x="557" y="710" type="line"/>
      <point x="93" y="710" type="line"/>
      <point x="93" y="0" type="line"/>
      <point x="566" y="0" type="line"/>
      <point x="566" y="46" type="line"/>
    </contour>
  </outline>
</glyph>
<glyph name="Uacute" format="1">
  <advance width="756"/>
  <unicode hex="00DA"/>
  <outline>
    <contour>
      <point x="462" y="917" type="line"/>
      <point x="404" y="917" type="line"/>
      <point x="343" y="832" type="line"/>
      <point x="378" y="816" type="line"/>
    </contour>
    <contour>
      <point x="378" y="42" type="curve" smooth="yes"/>
      <point x="189" y="42"/>
      <point x="133" y="196"/>
      <point x="133" y="353" type="curve" smooth="yes"/>
      <point x="133" y="710" type="line"/>
      <point x="82" y="710" type="line"/>
      <point x="82" y="353" type="line" smooth="yes"/>
      <point x="82" y="173"/>
      <point x="153" y="-5"/>
      <point x="379" y="-5" type="curve" smooth="yes"/>
      <point x="597" y="-5"/>
      <point x="674" y="163"/>
      <point x="674" y="353" type="curve" smooth="yes"/>
      <point x="674" y="710" type="line"/>
      <point x="623" y="710" type="line"/>
      <point x="623" y="353" type="line" smooth="yes"/>
      <point x="623" y="200"/>
      <point x="570" y="42"/>
    </contour>
  </outline>
</glyph>
<glyph name="ae" format="1">
  <advance width="930"/>
  <unicode hex="00E6"/>
  <outline>
    <contour>
      <point x="440" y="520" type="move" name="top"/>
    </contour>
    <contour>
      <point x="206" y="-10" type="curve" smooth="yes"/>
      <point x="288" y="-10"/>
      <point x="391" y="24"/>
      <point x="434" y="107" type="curve"/>
      <point x="480" y="37"/>
      <point x="557" y="-10"/>
      <point x="646" y="-10" type="curve" smooth="yes"/>
      <point x="743" y="-10"/>
      <point x="831" y="44"/>
      <point x="862" y="118" type="curve"/>
      <point x="818" y="130" type="line"/>
      <point x="792" y="71"/>
      <point x="721" y="30"/>
      <point x="648" y="30" type="curve" smooth="yes"/>
      <point x="538" y="30"/>
      <point x="446" y="120"/>
      <point x="437" y="240" type="curve"/>
      <point x="898" y="240" type="line"/>
      <point x="898" y="243"/>
      <point x="899" y="256"/>
      <point x="899" y="260" type="curve" smooth="yes"/>
      <point x="898" y="408"/>
      <point x="789" y="529"/>
      <point x="642" y="529" type="curve" smooth="yes"/>
      <point x="557" y="529"/>
      <point x="483" y="484"/>
      <point x="440" y="418" type="curve"/>
      <point x="411" y="488"/>
      <point x="348" y="529"/>
      <point x="261" y="529" type="curve" smooth="yes"/>
      <point x="200" y="529"/>
      <point x="137" y="506"/>
      <point x="70" y="461" type="curve"/>
      <point x="90" y="427" type="line"/>
      <point x="148" y="467"/>
      <point x="206" y="489"/>
      <point x="257" y="489" type="curve" smooth="yes"/>
      <point x="338" y="489"/>
      <point x="394" y="443"/>
      <point x="408" y="369" type="curve"/>
      <point x="397" y="343"/>
      <point x="391" y="313"/>
      <point x="389" y="285" type="curve"/>
      <point x="348" y="297"/>
      <point x="298" y="305"/>
      <point x="251" y="305" type="curve" smooth="yes"/>
      <point x="124" y="305"/>
      <point x="35" y="241"/>
      <point x="35" y="151" type="curve" smooth="yes"/>
      <point x="35" y="60"/>
      <point x="110" y="-10"/>
    </contour>
    <contour>
      <point x="216" y="30" type="curve" smooth="yes"/>
      <point x="141" y="30"/>
      <point x="83" y="84"/>
      <point x="83" y="154" type="curve" smooth="yes"/>
      <point x="83" y="223"/>
      <point x="153" y="270"/>
      <point x="257" y="270" type="curve" smooth="yes"/>
      <point x="303" y="270"/>
      <point x="348" y="263"/>
      <point x="389" y="250" type="curve"/>
      <point x="390" y="215"/>
      <point x="398" y="175"/>
      <point x="413" y="145" type="curve"/>
      <point x="412" y="134"/>
      <point x="406" y="122"/>
      <point x="397" y="110" type="curve" smooth="yes"/>
      <point x="364" y="61"/>
      <point x="293" y="30"/>
    </contour>
    <contour>
      <point x="437" y="277" type="line"/>
      <point x="443" y="399"/>
      <point x="530" y="488"/>
      <point x="642" y="488" type="curve" smooth="yes"/>
      <point x="755" y="488"/>
      <point x="841" y="400"/>
      <point x="850" y="277" type="curve"/>
    </contour>
  </outline>
</glyph>
<glyph name="Dcroat" format="1">
  <advance width="720"/>
  <unicode hex="0110"/>
  <outline>
    <contour>
      <point x="336" y="0" type="line" smooth="yes"/>
      <point x="542" y="0"/>
      <point x="673" y="141"/>
      <point x="673" y="356" type="curve" smooth="yes"/>
      <point x="673" y="552"/>
      <point x="561" y="710"/>
      <point x="336" y="710" type="curve" smooth="yes"/>
      <point x="100" y="710" type="line"/>
      <point x="100" y="378" type="line"/>
      <point x="35" y="378" type="line"/>
      <point x="35" y="336" type="line"/>
      <point x="100" y="336" type="line"/>
      <point x="100" y="0" type="line"/>
    </contour>
    <contour>
      <point x="622" y="356" type="curve" smooth="yes"/>
      <point x="622" y="180"/>
      <point x="523" y="46"/>
      <point x="336" y="46" type="curve" smooth="yes"/>
      <point x="151" y="46" type="line"/>
      <point x="151" y="336" type="line"/>
      <point x="329" y="336" type="line"/>
      <point x="329" y="378" type="line"/>
      <point x="151" y="378" type="line"/>
      <point x="151" y="664" type="line"/>
      <point x="336" y="664" type="line" smooth="yes"/>
      <point x="519" y="664"/>
      <point x="622" y="535"/>
    </contour>
  </outline>
</glyph>
<glyph name="ibreve" format="1">
  <advance width="207"/>
  <unicode hex="012D"/>
  <outline>
    <contour>
      <point x="128" y="0" type="line"/>
      <point x="128" y="520" type="line"/>
      <point x="78" y="520" type="line"/>
      <point x="78" y="0" type="line"/>
    </contour>
    <contour>
      <point x="104" y="666" type="curve" smooth="yes"/>
      <point x="75" y="666"/>
      <point x="48" y="697"/>
      <point x="48" y="730" type="curve"/>
      <point x="15" y="730" type="line"/>
      <point x="15" y="679"/>
      <point x="55" y="638"/>
      <point x="104" y="638" type="curve" smooth="yes"/>
      <point x="152" y="638"/>
      <point x="193" y="679"/>
      <point x="193" y="730" type="curve"/>
      <point x="160" y="730" type="line"/>
      <point x="156" y="694"/>
      <point x="131" y="666"/>
    </contour>
  </outline>
</glyph>
<glyph name="ij" format="1">
  <advance width="421"/>
  <unicode hex="0133"/>
  <outline>
    <contour>
      <point x="128" y="0" type="line"/>
      <point x="128" y="520" type="line"/>
      <point x="78" y="520" type="line"/>
      <point x="78" y="0" type="line"/>
    </contour>
    <contour>
      <point x="128" y="638" type="line"/>
      <point x="128" y="730" type="line"/>
      <point x="78" y="730" type="line"/>
      <point x="78" y="638" type="line"/>
    </contour>
    <contour>
      <point x="197" y="-177" type="curve" smooth="yes"/>
      <point x="269" y="-177"/>
      <point x="343" y="-115"/>
      <point x="343" y="-28" type="curve" smooth="yes"/>
      <point x="343" y="520" type="line"/>
      <point x="293" y="520" type="line"/>
      <point x="293" y="-30" type="line" smooth="yes"/>
      <point x="293" y="-88"/>
      <point x="242" y="-131"/>
      <point x="192" y="-131" type="curve" smooth="yes"/>
      <point x="166" y="-131"/>
      <point x="137" y="-126"/>
      <point x="115" y="-107" type="curve"/>
      <point x="88" y="-140" type="line"/>
      <point x="117" y="-167"/>
      <point x="155" y="-177"/>
    </contour>
    <contour>
      <point x="343" y="638" type="line"/>
      <point x="343" y="730" type="line"/>
      <point x="293" y="730" type="line"/>
      <point x="293" y="638" type="line"/>
    </contour>
  </outline>
</glyph>
<glyph name="Jcircumflex" format="1">
  <advance width="478"/>
  <unicode hex="0134"/>
  <outline>
    <contour>
      <point x="284" y="819" type="line"/>
      <point x="369" y="882" type="line"/>
      <point x="454" y="819" type="line"/>
      <point x="484" y="836" type="line"/>
      <point x="387" y="917" type="line"/>
      <point x="350" y="917" type="line"/>
      <point x="254" y="836" type="line"/>
    </contour>
    <contour>
      <point x="16" y="33" type="line"/>
      <point x="58" y="4"/>
      <point x="109" y="-11"/>
      <point x="170" y="-11" type="curve" smooth="yes"/>
      <point x="369" y="-11"/>
      <point x="394" y="133"/>
      <point x="394" y="349" type="curve" smooth="yes"/>
      <point x="394" y="710" type="line"/>
      <point x="343" y="710" type="line"/>
      <point x="343" y="349" type="line" smooth="yes"/>
      <point x="343" y="151"/>
      <point x="324" y="36"/>
      <point x="170" y="36" type="curve" smooth="yes"/>
      <point x="113" y="36"/>
      <point x="65" y="52"/>
      <point x="32" y="74" type="curve"/>
    </contour>
  </outline>
</glyph>
<glyph name="jcircumflex" format="1">
  <advance width="207"/>
  <unicode hex="0135"/>
  <outline>
    <contour>
      <point x="-18" y="-177" type="curve" smooth="yes"/>
      <point x="55" y="-177"/>
      <point x="128" y="-115"/>
      <point x="128" y="-28" type="curve" smooth="yes"/>
      <point x="128" y="520" type="line"/>
      <point x="78" y="520" type="line"/>
      <point x="78" y="-30" type="line" smooth="yes"/>
      <point x="78" y="-88"/>
      <point x="27" y="-131"/>
      <point x="-22" y="-131" type="curve" smooth="yes"/>
      <point x="-49" y="-131"/>
      <point x="-78" y="-126"/>
      <point x="-99" y="-107" type="curve"/>
      <point x="-126" y="-140" type="line"/>
      <point x="-98" y="-167"/>
      <point x="-60" y="-177"/>
    </contour>
    <contour>
      <point x="18" y="632" type="line"/>
      <point x="103" y="695" type="line"/>
      <point x="188" y="632" type="line"/>
      <point x="218" y="649" type="line"/>
      <point x="121" y="730" type="line"/>
      <point x="84" y="730" type="line"/>
      <point x="-12" y="649" type="line"/>
    </contour>
  </outline>
</glyph>
<glyph name="napostrophe" format="1">
  <advance width="576"/>
  <unicode hex="0149"/>
  <outline>
    <contour>
      <point x="121" y="730" type="line"/>
      <point x="41" y="730" type="line"/>
      <point x="41" y="699" type="line"/>
      <point x="2" y="645" type="line"/>
      <point x="36" y="629" type="line"/>
    </contour>
    <contour>
      <point x="503" y="299" type="line"/>
      <point x="503" y="446"/>
      <point x="461" y="529"/>
      <point x="348" y="529" type="curve" smooth="yes"/>
      <point x="256" y="529"/>
      <point x="167" y="475"/>
      <point x="125" y="396" type="curve"/>
      <point x="125" y="520" type="line"/>
      <point x="78" y="520" type="line"/>
      <point x="78" y="0" type="line"/>
      <point x="128" y="0" type="line"/>
      <point x="128" y="322" type="line"/>
      <point x="155" y="414"/>
      <point x="246" y="483"/>
      <point x="334" y="483" type="curve" smooth="yes"/>
      <point x="416" y="483"/>
      <point x="453" y="424"/>
      <point x="453" y="290" type="curve" smooth="yes"/>
      <point x="453" y="0" type="line"/>
      <point x="503" y="0" type="line"/>
    </contour>
  </outline>
</glyph>
<glyph name="uni015E" format="1">
  <advance width="606"/>
  <unicode hex="015E"/>
  <outline>
    <contour>
      <point x="232" y="-152" type="line"/>
      <point x="257" y="-162"/>
      <point x="291" y="-171"/>
      <point x="329" y="-171" type="curve" smooth="yes"/>
      <point x="388" y="-171"/>
      <point x="422" y="-149"/>
      <point x="422" y="-106" type="curve" smooth="yes"/>
      <point x="422" y="-67"/>
      <point x="395" y="-47"/>
      <point x="350" y="-47" type="curve" smooth="yes"/>
      <point x="340" y="-47"/>
      <point x="322" y="-48"/>
      <point x="310" y="-53" type="curve"/>
      <point x="339" y="-5" type="line"/>
      <point x="478" y="0"/>
      <point x="571" y="63"/>
      <point x="571" y="182" type="curve" smooth="yes"/>
      <point x="571" y="308"/>
      <point x="474" y="346"/>
      <point x="321" y="378" type="curve" smooth="yes"/>
      <point x="175" y="409"/>
      <point x="113" y="432"/>
      <point x="113" y="523" type="curve" smooth="yes"/>
      <point x="113" y="612"/>
      <point x="173" y="669"/>
      <point x="312" y="669" type="curve" smooth="yes"/>
      <point x="397" y="669"/>
      <point x="461" y="643"/>
      <point x="507" y="592" type="curve"/>
      <point x="533" y="632" type="line"/>
      <point x="475" y="687"/>
      <point x="404" y="715"/>
      <point x="312" y="715" type="curve" smooth="yes"/>
      <point x="163" y="715"/>
      <point x="61" y="644"/>
      <point x="61" y="516" type="curve" smooth="yes"/>
      <point x="61" y="400"/>
      <point x="143" y="366"/>
      <point x="294" y="334" type="curve" smooth="yes"/>
      <point x="444" y="302"/>
      <point x="517" y="270"/>
      <point x="517" y="176" type="curve" smooth="yes"/>
      <point x="517" y="85"/>
      <point x="442" y="39"/>
      <point x="319" y="39" type="curve" smooth="yes"/>
      <point x="211" y="39"/>
      <point x="122" y="79"/>
      <point x="63" y="141" type="curve"/>
      <point x="36" y="100" type="line"/>
      <point x="110" y="31"/>
      <point x="199" y="-3"/>
      <point x="305" y="-6" type="curve"/>
      <point x="261" y="-85" type="line"/>
      <point x="279" y="-80"/>
      <point x="314" y="-71"/>
      <point x="342" y="-71" type="curve" smooth="yes"/>
      <point x="371" y="-71"/>
      <point x="391" y="-80"/>
      <point x="391" y="-107" type="curve" smooth="yes"/>
      <point x="391" y="-133"/>
      <point x="371" y="-144"/>
      <point x="333" y="-144" type="curve" smooth="yes"/>
      <point x="299" y="-144"/>
      <point x="265" y="-134"/>
      <point x="246" y="-125" type="curve"/>
    </contour>
  </outline>
</glyph>
<glyph name="utilde" format="1">
  <advance width="587"/>
  <unicode hex="0169"/>
  <outline>
    <contour>
      <point x="239" y="-10" type="curve" smooth="yes"/>
      <point x="331" y="-10"/>
      <point x="416" y="40"/>
      <point x="461" y="123" type="curve"/>
      <point x="461" y="45" type="line" smooth="yes"/>
      <point x="461" y="17"/>
      <point x="486" y="-1"/>
      <point x="512" y="-1" type="curve" smooth="yes"/>
      <point x="515" y="-1"/>
      <point x="520" y="-1"/>
      <point x="527" y="0" type="curve"/>
      <point x="527" y="45" type="line"/>
      <point x="513" y="45"/>
      <point x="506" y="54"/>
      <point x="506" y="70" type="curve" smooth="yes"/>
      <point x="506" y="520" type="line"/>
      <point x="456" y="520" type="line"/>
      <point x="456" y="192" type="line"/>
      <point x="425" y="98"/>
      <point x="341" y="35"/>
      <point x="254" y="35" type="curve" smooth="yes"/>
      <point x="166" y="35"/>
      <point x="123" y="98"/>
      <point x="123" y="227" type="curve" smooth="yes"/>
      <point x="123" y="520" type="line"/>
      <point x="73" y="520" type="line"/>
      <point x="73" y="220" type="line" smooth="yes"/>
      <point x="73" y="68"/>
      <point x="130" y="-10"/>
    </contour>
    <contour>
      <point x="349" y="647" type="curve" smooth="yes"/>
      <point x="428" y="647"/>
      <point x="441" y="718"/>
      <point x="441" y="730" type="curve"/>
      <point x="407" y="730" type="line"/>
      <point x="407" y="726"/>
      <point x="403" y="682"/>
      <point x="350" y="682" type="curve" smooth="yes"/>
      <point x="299" y="682"/>
      <point x="277" y="722"/>
      <point x="223" y="722" type="curve" smooth="yes"/>
      <point x="151" y="722"/>
      <point x="138" y="650"/>
      <point x="138" y="639" type="curve"/>
      <point x="172" y="639" type="line"/>
      <point x="172" y="644"/>
      <point x="179" y="687"/>
      <point x="223" y="687" type="curve" smooth="yes"/>
      <point x="264" y="687"/>
      <point x="290" y="647"/>
    </contour>
  </outline>
</glyph>
<glyph name="wcircumflex" format="1">
  <advance width="806"/>
  <unicode hex="0175"/>
  <outline>
    <contour>
      <point x="318" y="632" type="line"/>
      <point x="403" y="695" type="line"/>
      <point x="488" y="632" type="line"/>
      <point x="518" y="649" type="line"/>
      <point x="421" y="730" type="line"/>
      <point x="384" y="730" type="line"/>
      <point x="288" y="649" type="line"/>
    </contour>
    <contour>
      <point x="539" y="55" type="line"/>
      <point x="430" y="311" type="line"/>
      <point x="518" y="519" type="line"/>
      <point x="474" y="519" type="line"/>
      <point x="403" y="347" type="line"/>
      <point x="331" y="519" type="line"/>
      <point x="288" y="519" type="line"/>
      <point x="376" y="311" type="line"/>
      <point x="267" y="55" type="line"/>
      <point x="68" y="520" type="line"/>
      <point x="19" y="520" type="line"/>
      <point x="244" y="0" type="line"/>
      <point x="286" y="0" type="line"/>
      <point x="403" y="275" type="line"/>
      <point x="520" y="0" type="line"/>
      <point x="562" y="0" type="line"/>
      <point x="787" y="520" type="line"/>
      <point x="737" y="520" type="line"/>
    </contour>
  </outline>
</glyph>
<glyph name="uni01C6" format="1">
  <advance width="1105"/>
  <unicode hex="01C6"/>
  <outline>
    <contour>
      <point x="757" y="713" type="line"/>
      <point x="853" y="632" type="line"/>
      <point x="890" y="632" type="line"/>
      <point x="987" y="713" type="line"/>
      <point x="957" y="730" type="line"/>
      <point x="872" y="667" type="line"/>
      <point x="787" y="730" type="line"/>
    </contour>
    <contour>
      <point x="647" y="0" type="line"/>
      <point x="1069" y="0" type="line"/>
      <point x="1069" y="39" type="line"/>
      <point x="704" y="39" type="line"/>
      <point x="1071" y="484" type="line"/>
      <point x="1071" y="520" type="line"/>
      <point x="653" y="520" type="line"/>
      <point x="653" y="481" type="line"/>
      <point x="1015" y="481" type="line"/>
      <point x="647" y="36" type="line"/>
    </contour>
    <contour>
      <point x="292" y="-10" type="curve" smooth="yes"/>
      <point x="369" y="-10"/>
      <point x="447" y="35"/>
      <point x="489" y="104" type="curve"/>
      <point x="489" y="46" type="line" smooth="yes"/>
      <point x="489" y="23"/>
      <point x="510" y="-2"/>
      <point x="537" y="-2" type="curve" smooth="yes"/>
      <point x="542" y="-2"/>
      <point x="547" y="-1"/>
      <point x="555" y="0" type="curve"/>
      <point x="555" y="45" type="line"/>
      <point x="541" y="45"/>
      <point x="534" y="54"/>
      <point x="534" y="70" type="curve" smooth="yes"/>
      <point x="534" y="730" type="line"/>
      <point x="484" y="730" type="line"/>
      <point x="484" y="407" type="line"/>
      <point x="444" y="473"/>
      <point x="371" y="529"/>
      <point x="281" y="529" type="curve" smooth="yes"/>
      <point x="143" y="529"/>
      <point x="42" y="404"/>
      <point x="42" y="259" type="curve" smooth="yes"/>
      <point x="42" y="121"/>
      <point x="147" y="-10"/>
    </contour>
    <contour>
      <point x="301" y="35" type="curve" smooth="yes"/>
      <point x="185" y="35"/>
      <point x="93" y="139"/>
      <point x="93" y="258" type="curve" smooth="yes"/>
      <point x="93" y="372"/>
      <point x="171" y="484"/>
      <point x="292" y="484" type="curve" smooth="yes"/>
      <point x="368" y="484"/>
      <point x="456" y="422"/>
      <point x="484" y="346" type="curve"/>
      <point x="484" y="175" type="line"/>
      <point x="475" y="99"/>
      <point x="374" y="35"/>
    </contour>
  </outline>
</glyph>
<glyph name="Idblgrave" format="1">
  <advance width="237"/>
  <unicode hex="0208"/>
  <outline>
    <contour>
      <point x="144" y="0" type="line"/>
      <point x="144" y="710" type="line"/>
      <point x="93" y="710" type="line"/>
      <point x="93" y="0" type="line"/>
    </contour>
    <contour>
      <point x="178" y="817" type="line"/>
      <point x="207" y="833" type="line"/>
      <point x="147" y="918" type="line"/>
      <point x="95" y="918" type="line"/>
    </contour>
    <contour>
      <point x="62" y="817" type="line"/>
      <point x="91" y="833" type="line"/>
      <point x="32" y="918" type="line"/>
      <point x="-21" y="918" type="line"/>
    </contour>
  </outline>
</glyph>
<glyph name="Iinvertedbreve" format="1">
  <advance width="237"/>
  <unicode hex="020A"/>
  <outline>
    <contour>
      <point x="144" y="0" type="line"/>
      <point x="144" y="710" type="line"/>
      <point x="93" y="710" type="line"/>
      <point x="93" y="0" type="line"/>
    </contour>
    <contour>
      <point x="117" y="889" type="curve" smooth="yes"/>
      <point x="144" y="889"/>
      <point x="169" y="861"/>
      <point x="173" y="825" type="curve"/>
      <point x="206" y="825" type="line"/>
      <point x="206" y="876"/>
      <point x="165" y="917"/>
      <point x="117" y="917" type="curve" smooth="yes"/>
      <point x="68" y="917"/>
      <point x="28" y="876"/>
      <point x="28" y="825" type="curve"/>
      <point x="61" y="825" type="line"/>
      <point x="61" y="858"/>
      <point x="88" y="889"/>
    </contour>
  </outline>
</glyph>
<glyph name="schwa" format="1">
  <advance width="583"/>
  <unicode hex="0259"/>
  <outline>
    <contour>
      <point x="288" y="-10" type="curve" smooth="yes"/>
      <point x="433" y="-10"/>
      <point x="541" y="110"/>
      <point x="541" y="256" type="curve" smooth="yes"/>
      <point x="541" y="405"/>
      <point x="430" y="529"/>
      <point x="284" y="529" type="curve" smooth="yes"/>
      <point x="187" y="529"/>
      <point x="99" y="474"/>
      <point x="68" y="401" type="curve"/>
      <point x="112" y="389" type="line"/>
      <point x="138" y="447"/>
      <point x="209" y="488"/>
      <point x="282" y="488" type="curve" smooth="yes"/>
      <point x="390" y="488"/>
      <point x="480" y="399"/>
      <point x="489" y="278" type="curve"/>
      <point x="32" y="278" type="line"/>
      <point x="32" y="275"/>
      <point x="31" y="262"/>
      <point x="31" y="259" type="curve"/>
      <point x="32" y="111"/>
      <point x="142" y="-10"/>
    </contour>
    <contour>
      <point x="288" y="30" type="curve" smooth="yes"/>
      <point x="178" y="30"/>
      <point x="89" y="118"/>
      <point x="81" y="241" type="curve"/>
      <point x="490" y="241" type="line"/>
      <point x="483" y="120"/>
      <point x="398" y="30"/>
    </contour>
  </outline>
</glyph>
<glyph name="uni0402" format="1">
  <advance width="692"/>
  <unicode hex="0402"/>
  <outline>
    <contour>
      <point x="205" y="0" type="line"/>
      <point x="256" y="0" type="line"/>
      <point x="256" y="323" type="line"/>
      <point x="307" y="373"/>
      <point x="364" y="396"/>
      <point x="432" y="396" type="curve" smooth="yes"/>
      <point x="548" y="396"/>
      <point x="609" y="333"/>
      <point x="609" y="215" type="curve" smooth="yes"/>
      <point x="609" y="98"/>
      <point x="553" y="35"/>
      <point x="447" y="35" type="curve" smooth="yes"/>
      <point x="416" y="35"/>
      <point x="395" y="40"/>
      <point x="357" y="58" type="curve"/>
      <point x="341" y="12" type="line"/>
      <point x="377" y="-4"/>
      <point x="408" y="-10"/>
      <point x="447" y="-10" type="curve" smooth="yes"/>
      <point x="588" y="-10"/>
      <point x="663" y="69"/>
      <point x="663" y="215" type="curve" smooth="yes"/>
      <point x="663" y="363"/>
      <point x="581" y="443"/>
      <point x="438" y="443" type="curve" smooth="yes"/>
      <point x="364" y="443"/>
      <point x="302" y="421"/>
      <point x="256" y="377" type="curve"/>
      <point x="256" y="664" type="line"/>
      <point x="533" y="664" type="line"/>
      <point x="533" y="710" type="line"/>
      <point x="16" y="710" type="line"/>
      <point x="16" y="664" type="line"/>
      <point x="205" y="664" type="line"/>
    </contour>
  </outline>
</glyph>
<glyph name="uni0403" format="1">
  <advance width="524"/>
  <unicode hex="0403"/>
  <outline>
    <contour>
      <point x="378" y="917" type="line"/>
      <point x="320" y="917" type="line"/>
      <point x="259" y="832" type="line"/>
      <point x="294" y="816" type="line"/>
    </contour>
    <contour>
      <point x="503" y="710" type="line"/>
      <point x="94" y="710" type="line"/>
      <point x="94" y="0" type="line"/>
      <point x="145" y="0" type="line"/>
      <point x="145" y="664" type="line"/>
      <point x="503" y="664" type="line"/>
    </contour>
  </outline>
</glyph>
<glyph name="uni040C" format="1">
  <advance width="588"/>
  <unicode hex="040C"/>
  <outline>
    <contour>
      <point x="399" y="917" type="line"/>
      <point x="341" y="917" type="line"/>
      <point x="280" y="832" type="line"/>
      <point x="315" y="816" type="line"/>
    </contour>
    <contour>
      <point x="145" y="710" type="line"/>
      <point x="94" y="710" type="line"/>
      <point x="94" y="0" type="line"/>
      <point x="145" y="0" type="line"/>
      <point x="145" y="343" type="line"/>
      <point x="272" y="343" type="line"/>
      <point x="528" y="0" type="line"/>
      <point x="588" y="0" type="line"/>
      <point x="313" y="369" type="line"/>
      <point x="559" y="710" type="line"/>
      <point x="499" y="710" type="line"/>
      <point x="269" y="390" type="line"/>
      <point x="145" y="390" type="line"/>
    </contour>
  </outline>
</glyph>
<glyph name="uni0410" format="1">
  <advance width="675"/>
  <unicode hex="0410"/>
  <outline>
    <contour>
      <point x="14" y="0" type="line"/>
      <point x="69" y="0" type="line"/>
      <point x="168" y="234" type="line"/>
      <point x="507" y="234" type="line"/>
      <point x="606" y="0" type="line"/>
      <point x="660" y="0" type="line"/>
      <point x="360" y="710" type="line"/>
      <point x="316" y="710" type="line"/>
    </contour>
    <contour>
      <point x="180" y="276" type="line"/>
      <point x="338" y="648" type="line"/>
      <point x="493" y="276" type="line"/>
    </contour>
  </outline>
</glyph>
<glyph name="uni0420" format="1">
  <advance width="622"/>
  <unicode hex="0420"/>
  <outline>
    <contour>
      <point x="145" y="0" type="line"/>
      <point x="145" y="268" type="line"/>
      <point x="392" y="268" type="line" smooth="yes"/>
      <point x="512" y="268"/>
      <point x="593" y="376"/>
      <point x="593" y="490" type="curve" smooth="yes"/>
      <point x="593" y="598"/>
      <point x="506" y="710"/>
      <point x="386" y="710" type="curve" smooth="yes"/>
      <point x="94" y="710" type="line"/>
      <point x="94" y="0" type="line"/>
    </contour>
    <contour>
      <point x="145" y="664" type="line"/>
      <point x="384" y="664" type="line" smooth="yes"/>
      <point x="470" y="664"/>
      <point x="541" y="583"/>
      <point x="541" y="490" type="curve" smooth="yes"/>
      <point x="541" y="400"/>
      <point x="483" y="315"/>
      <point x="390" y="315" type="curve" smooth="yes"/>
      <point x="145" y="315" type="line"/>
    </contour>
  </outline>
</glyph>
<glyph name="uni0424" format="1">
  <advance width="737"/>
  <unicode hex="0424"/>
  <outline>
    <contour>
      <point x="344" y="-34" type="line"/>
      <point x="395" y="-34" type="line"/>
      <point x="395" y="73" type="line"/>
      <point x="580" y="82"/>
      <point x="703" y="194"/>
      <point x="703" y="375" type="curve" smooth="yes"/>
      <point x="703" y="552"/>
      <point x="583" y="671"/>
      <point x="395" y="680" type="curve"/>
      <point x="395" y="782" type="line"/>
      <point x="344" y="782" type="line"/>
      <point x="344" y="680" type="line"/>
      <point x="153" y="670"/>
      <point x="33" y="552"/>
      <point x="33" y="375" type="curve" smooth="yes"/>
      <point x="33" y="194"/>
      <point x="158" y="81"/>
      <point x="344" y="73" type="curve"/>
    </contour>
    <contour>
      <point x="395" y="120" type="curve"/>
      <point x="395" y="631" type="line"/>
      <point x="553" y="623"/>
      <point x="651" y="529"/>
      <point x="651" y="377" type="curve" smooth="yes"/>
      <point x="651" y="223"/>
      <point x="550" y="129"/>
    </contour>
    <contour>
      <point x="344" y="120" type="line"/>
      <point x="188" y="129"/>
      <point x="85" y="223"/>
      <point x="85" y="377" type="curve" smooth="yes"/>
      <point x="85" y="529"/>
      <point x="184" y="623"/>
      <point x="344" y="631" type="curve"/>
    </contour>
  </outline>
</glyph>
<glyph name="uni042A" format="1">
  <advance width="724"/>
  <unicode hex="042A"/>
  <outline>
    <contour>
      <point x="16" y="664" type="line"/>
      <point x="233" y="664" type="line"/>
      <point x="233" y="0" type="line"/>
      <point x="467" y="0" type="line" smooth="yes"/>
      <point x="606" y="0"/>
      <point x="694" y="89"/>
      <point x="694" y="216" type="curve" smooth="yes"/>
      <point x="694" y="348"/>
      <point x="609" y="431"/>
      <point x="466" y="431" type="curve" smooth="yes"/>
      <point x="284" y="431" type="line"/>
      <point x="284" y="710" type="line"/>
      <point x="16" y="710" type="line"/>
    </contour>
    <contour>
      <point x="284" y="386" type="line"/>
      <point x="466" y="386" type="line" smooth="yes"/>
      <point x="595" y="386"/>
      <point x="642" y="310"/>
      <point x="642" y="216" type="curve" smooth="yes"/>
      <point x="642" y="123"/>
      <point x="590" y="46"/>
      <point x="467" y="46" type="curve" smooth="yes"/>
      <point x="284" y="46" type="line"/>
    </contour>
  </outline>
</glyph>
<glyph name="uni042F" format="1">
  <advance width="628"/>
  <unicode hex="042F"/>
  <outline>
    <contour>
      <point x="534" y="0" type="line"/>
      <point x="534" y="710" type="line"/>
      <point x="297" y="710" type="line" smooth="yes"/>
      <point x="161" y="710"/>
      <point x="73" y="612"/>
      <point x="73" y="505" type="curve" smooth="yes"/>
      <point x="73" y="411"/>
      <point x="129" y="332"/>
      <point x="218" y="304" type="curve"/>
      <point x="32" y="0" type="line"/>
      <point x="93" y="0" type="line"/>
      <point x="270" y="294" type="line"/>
      <point x="483" y="294" type="line"/>
      <point x="483" y="0" type="line"/>
    </contour>
    <contour>
      <point x="483" y="340" type="line"/>
      <point x="292" y="340" type="line" smooth="yes"/>
      <point x="184" y="340"/>
      <point x="125" y="417"/>
      <point x="125" y="505" type="curve" smooth="yes"/>
      <point x="125" y="595"/>
      <point x="197" y="664"/>
      <point x="299" y="664" type="curve" smooth="yes"/>
      <point x="483" y="664" type="line"/>
    </contour>
  </outline>
</glyph>
<glyph name="hdotbelow" format="1">
  <advance width="576"/>
  <unicode hex="1E25"/>
  <outline>
    <contour>
      <point x="503" y="299" type="line"/>
      <point x="503" y="441"/>
      <point x="453" y="529"/>
      <point x="338" y="529" type="curve" smooth="yes"/>
      <point x="252" y="529"/>
      <point x="170" y="477"/>
      <point x="128" y="396" type="curve"/>
      <point x="128" y="730" type="line"/>
      <point x="78" y="730" type="line"/>
      <point x="78" y="0" type="line"/>
      <point x="128" y="0" type="line"/>
      <point x="128" y="322" type="line"/>
      <point x="154" y="414"/>
      <point x="240" y="483"/>
      <point x="324" y="483" type="curve" smooth="yes"/>
      <point x="409" y="483"/>
      <point x="453" y="418"/>
      <point x="453" y="290" type="curve" smooth="yes"/>
      <point x="453" y="0" type="line"/>
      <point x="503" y="0" type="line"/>
    </contour>
    <contour>
      <point x="316" y="-151" type="line"/>
      <point x="316" y="-61" type="line"/>
      <point x="270" y="-61" type="line"/>
      <point x="270" y="-151" type="line"/>
    </contour>
  </outline>
</glyph>
<glyph name="Ndotaccent" format="1">
  <advance width="773"/>
  <unicode hex="1E44"/>
  <outline>
    <contour>
      <point x="413" y="827" type="line"/>
      <point x="413" y="917" type="line"/>
      <point x="367" y="917" type="line"/>
      <point x="367" y="827" type="line"/>
    </contour>
    <contour>
      <point x="634" y="0" type="line"/>
      <point x="681" y="0" type="line"/>
      <point x="681" y="710" type="line"/>
      <point x="630" y="710" type="line"/>
      <point x="630" y="85" type="line"/>
      <point x="132" y="710" type="line"/>
      <point x="93" y="710" type="line"/>
      <point x="93" y="0" type="line"/>
      <point x="144" y="0" type="line"/>
      <point x="144" y="614" type="line"/>
    </contour>
  </outline>
</glyph>
<glyph name="etilde" format="1">
  <advance width="583"/>
  <unicode hex="1EBD"/>
  <outline>
    <contour>
      <point x="299" y="-10" type="curve" smooth="yes"/>
      <point x="395" y="-10"/>
      <point x="484" y="44"/>
      <point x="514" y="118" type="curve"/>
      <point x="470" y="130" type="line"/>
      <point x="444" y="71"/>
      <point x="373" y="30"/>
      <point x="301" y="30" type="curve" smooth="yes"/>
      <point x="193" y="30"/>
      <point x="103" y="120"/>
      <point x="94" y="240" type="curve"/>
      <point x="550" y="240" type="line"/>
      <point x="551" y="243"/>
      <point x="551" y="255"/>
      <point x="551" y="262" type="curve"/>
      <point x="551" y="407"/>
      <point x="443" y="529"/>
      <point x="296" y="529" type="curve" smooth="yes"/>
      <point x="151" y="529"/>
      <point x="42" y="409"/>
      <point x="42" y="262" type="curve" smooth="yes"/>
      <point x="42" y="114"/>
      <point x="153" y="-10"/>
    </contour>
    <contour>
      <point x="93" y="280" type="line"/>
      <point x="100" y="401"/>
      <point x="187" y="488"/>
      <point x="297" y="488" type="curve" smooth="yes"/>
      <point x="407" y="488"/>
      <point x="494" y="402"/>
      <point x="503" y="280" type="curve"/>
    </contour>
    <contour>
      <point x="356" y="647" type="curve" smooth="yes"/>
      <point x="435" y="647"/>
      <point x="448" y="718"/>
      <point x="448" y="730" type="curve"/>
      <point x="414" y="730" type="line"/>
      <point x="414" y="726"/>
      <point x="410" y="682"/>
      <point x="357" y="682" type="curve" smooth="yes"/>
      <point x="306" y="682"/>
      <point x="284" y="722"/>
      <point x="230" y="722" type="curve" smooth="yes"/>
      <point x="158" y="722"/>
      <point x="145" y="650"/>
      <point x="145" y="639" type="curve"/>
      <point x="179" y="639" type="line"/>
      <point x="179" y="644"/>
      <point x="186" y="687"/>
      <point x="230" y="687" type="curve" smooth="yes"/>
      <point x="271" y="687"/>
      <point x="297" y="647"/>
    </contour>
  </outline>
</glyph>
<glyph name="quotedblleft" format="1">
  <advance width="291"/>
  <unicode hex="201C"/>
  <outline>
    <contour>
      <point x="87" y="730" type="line"/>
      <point x="66" y="631" type="line"/>
      <point x="66" y="540" type="line"/>
      <point x="118" y="540" type="line"/>
      <point x="118" y="631" type="line"/>
      <point x="99" y="631" type="line"/>
      <point x="114" y="730" type="line"/>
    </contour>
    <contour>
      <point x="193" y="730" type="line"/>
      <point x="172" y="631" type="line"/>
      <point x="172" y="540" type="line"/>
      <point x="224" y="540" type="line"/>
      <point x="224" y="631" type="line"/>
      <point x="205" y="631" type="line"/>
      <point x="220" y="730" type="line"/>
    </contour>
  </outline>
</glyph>
<glyph name="quotedblbase" format="1">
  <advance width="338"/>
  <unicode hex="201E"/>
  <outline>
    <contour>
      <point x="124" y="-93" type="line"/>
      <point x="145" y="0" type="line"/>
      <point x="145" y="92" type="line"/>
      <point x="94" y="92" type="line"/>
      <point x="94" y="0" type="line"/>
      <point x="112" y="0" type="line"/>
      <point x="97" y="-93" type="line"/>
    </contour>
    <contour>
      <point x="224" y="-93" type="line"/>
      <point x="245" y="0" type="line"/>
      <point x="245" y="92" type="line"/>
      <point x="194" y="92" type="line"/>
      <point x="194" y="0" type="line"/>
      <point x="212" y="0" type="line"/>
      <point x="197" y="-93" type="line"/>
    </contour>
  </outline>
</glyph>
<glyph name="perthousand" format="1">
  <advance width="1039"/>
  <unicode hex="2030"/>
  <outline>
    <contour>
      <point x="194" y="437" type="curve" smooth="yes"/>
      <point x="275" y="437"/>
      <point x="339" y="500"/>
      <point x="339" y="578" type="curve" smooth="yes"/>
      <point x="339" y="657"/>
      <point x="275" y="720"/>
      <point x="194" y="720" type="curve" smooth="yes"/>
      <point x="114" y="720"/>
      <point x="49" y="657"/>
      <point x="49" y="578" type="curve" smooth="yes"/>
      <point x="49" y="500"/>
      <point x="114" y="437"/>
    </contour>
    <contour>
      <point x="194" y="469" type="curve" smooth="yes"/>
      <point x="137" y="469"/>
      <point x="89" y="518"/>
      <point x="89" y="578" type="curve" smooth="yes"/>
      <point x="89" y="636"/>
      <point x="135" y="688"/>
      <point x="194" y="688" type="curve" smooth="yes"/>
      <point x="250" y="688"/>
      <point x="300" y="639"/>
      <point x="300" y="578" type="curve" smooth="yes"/>
      <point x="300" y="521"/>
      <point x="253" y="469"/>
    </contour>
    <contour>
      <point x="516" y="-10" type="curve" smooth="yes"/>
      <point x="597" y="-10"/>
      <point x="661" y="53"/>
      <point x="661" y="132" type="curve" smooth="yes"/>
      <point x="661" y="210"/>
      <point x="597" y="273"/>
      <point x="516" y="273" type="curve" smooth="yes"/>
      <point x="436" y="273"/>
      <point x="371" y="210"/>
      <point x="371" y="132" type="curve" smooth="yes"/>
      <point x="371" y="53"/>
      <point x="436" y="-10"/>
    </contour>
    <contour>
      <point x="516" y="22" type="curve" smooth="yes"/>
      <point x="458" y="22"/>
      <point x="411" y="71"/>
      <point x="411" y="132" type="curve" smooth="yes"/>
      <point x="411" y="189"/>
      <point x="457" y="241"/>
      <point x="516" y="241" type="curve" smooth="yes"/>
      <point x="572" y="241"/>
      <point x="622" y="192"/>
      <point x="622" y="132" type="curve" smooth="yes"/>
      <point x="622" y="73"/>
      <point x="575" y="22"/>
    </contour>
    <contour>
      <point x="860" y="-10" type="curve" smooth="yes"/>
      <point x="941" y="-10"/>
      <point x="1005" y="53"/>
      <point x="1005" y="132" type="curve" smooth="yes"/>
      <point x="1005" y="210"/>
      <point x="941" y="273"/>
      <point x="860" y="273" type="curve" smooth="yes"/>
      <point x="780" y="273"/>
      <point x="715" y="210"/>
      <point x="715" y="132" type="curve" smooth="yes"/>
      <point x="715" y="53"/>
      <point x="780" y="-10"/>
    </contour>
    <contour>
      <point x="860" y="22" type="curve" smooth="yes"/>
      <point x="802" y="22"/>
      <point x="755" y="71"/>
      <point x="755" y="132" type="curve" smooth="yes"/>
      <point x="755" y="189"/>
      <point x="801" y="241"/>
      <point x="860" y="241" type="curve" smooth="yes"/>
      <point x="916" y="241"/>
      <point x="966" y="192"/>
      <point x="966" y="132" type="curve" smooth="yes"/>
      <point x="966" y="73"/>
      <point x="919" y="22"/>
    </contour>
    <contour>
      <point x="92" y="-3" type="line"/>
      <point x="367" y="345" type="line"/>
      <point x="646" y="690" type="line"/>
      <point x="618" y="713" type="line"/>
      <point x="344" y="365" type="line"/>
      <point x="65" y="21" type="line"/>
    </contour>
  </outline>
</glyph>
<glyph name="guilsinglleft" format="1">
  <advance width="351"/>
  <unicode hex="2039"/>
  <outline>
    <contour>
      <point x="41" y="243" type="line"/>
      <point x="285" y="71" type="line"/>
      <point x="285" y="116" type="line"/>
      <point x="83" y="259" type="line"/>
      <point x="285" y="403" type="line"/>
      <point x="285" y="448" type="line"/>
      <point x="41" y="273" type="line"/>
    </contour>
  </outline>
</glyph>
<glyph name="fiveinferior" format="1">
  <advance width="369"/>
  <unicode hex="2085"/>
  <outline>
    <contour>
      <point x="186" y="169" type="curve" smooth="yes"/>
      <point x="147" y="169"/>
      <point x="111" y="158"/>
      <point x="86" y="136" type="curve"/>
      <point x="121" y="278" type="line"/>
      <point x="312" y="278" type="line"/>
      <point x="312" y="313" type="line"/>
      <point x="94" y="313" type="line"/>
      <point x="90" y="290"/>
      <point x="51" y="134"/>
      <point x="42" y="92" type="curve"/>
      <point x="76" y="92" type="line"/>
      <point x="98" y="121"/>
      <point x="140" y="140"/>
      <point x="182" y="140" type="curve" smooth="yes"/>
      <point x="239" y="140"/>
      <point x="299" y="106"/>
      <point x="299" y="45" type="curve" smooth="yes"/>
      <point x="299" y="-12"/>
      <point x="247" y="-52"/>
      <point x="180" y="-52" type="curve" smooth="yes"/>
      <point x="127" y="-52"/>
      <point x="82" y="-28"/>
      <point x="58" y="9" type="curve"/>
      <point x="33" y="-10" type="line"/>
      <point x="59" y="-55"/>
      <point x="114" y="-85"/>
      <point x="178" y="-85" type="curve" smooth="yes"/>
      <point x="264" y="-85"/>
      <point x="335" y="-33"/>
      <point x="335" y="44" type="curve" smooth="yes"/>
      <point x="335" y="119"/>
      <point x="269" y="169"/>
    </contour>
  </outline>
</glyph>
<glyph name="sixinferior" format="1">
  <advance width="398"/>
  <unicode hex="2086"/>
  <outline>
    <contour>
      <point x="364" y="50" type="curve" smooth="yes"/>
      <point x="364" y="124"/>
      <point x="296" y="183"/>
      <point x="207" y="183" type="curve" smooth="yes"/>
      <point x="150" y="183"/>
      <point x="95" y="154"/>
      <point x="76" y="111" type="curve"/>
      <point x="77" y="221"/>
      <point x="129" y="283"/>
      <point x="208" y="283" type="curve" smooth="yes"/>
      <point x="258" y="283"/>
      <point x="302" y="258"/>
      <point x="319" y="221" type="curve"/>
      <point x="342" y="243" type="line"/>
      <point x="319" y="289"/>
      <point x="268" y="316"/>
      <point x="209" y="316" type="curve" smooth="yes"/>
      <point x="109" y="316"/>
      <point x="42" y="239"/>
      <point x="42" y="79" type="curve" smooth="yes"/>
      <point x="42" y="-23"/>
      <point x="110" y="-85"/>
      <point x="204" y="-85" type="curve" smooth="yes"/>
      <point x="294" y="-85"/>
      <point x="364" y="-25"/>
    </contour>
    <contour>
      <point x="205" y="-53" type="curve" smooth="yes"/>
      <point x="137" y="-53"/>
      <point x="79" y="-6"/>
      <point x="79" y="50" type="curve" smooth="yes"/>
      <point x="79" y="105"/>
      <point x="135" y="152"/>
      <point x="204" y="152" type="curve" smooth="yes"/>
      <point x="273" y="152"/>
      <point x="330" y="105"/>
      <point x="330" y="49" type="curve" smooth="yes"/>
      <point x="330" y="-6"/>
      <point x="274" y="-53"/>
    </contour>
  </outline>
</glyph>
<glyph name="eightinferior" format="1">
  <advance width="392"/>
  <unicode hex="2088"/>
  <outline>
    <contour>
      <point x="352" y="28" type="curve" smooth="yes"/>
      <point x="352" y="79"/>
      <point x="311" y="115"/>
      <point x="256" y="131" type="curve"/>
      <point x="300" y="145"/>
      <point x="336" y="174"/>
      <point x="336" y="215" type="curve" smooth="yes"/>
      <point x="336" y="277"/>
      <point x="264" y="313"/>
      <point x="196" y="313" type="curve" smooth="yes"/>
      <point x="128" y="313"/>
      <point x="55" y="277"/>
      <point x="55" y="214" type="curve" smooth="yes"/>
      <point x="55" y="173"/>
      <point x="92" y="145"/>
      <point x="134" y="131" type="curve"/>
      <point x="87" y="117"/>
      <point x="39" y="82"/>
      <point x="39" y="30" type="curve" smooth="yes"/>
      <point x="39" y="-32"/>
      <point x="103" y="-84"/>
      <point x="194" y="-84" type="curve" smooth="yes"/>
      <point x="279" y="-84"/>
      <point x="352" y="-39"/>
    </contour>
    <contour>
      <point x="316" y="32" type="curve" smooth="yes"/>
      <point x="316" y="-18"/>
      <point x="255" y="-50"/>
      <point x="196" y="-50" type="curve" smooth="yes"/>
      <point x="140" y="-50"/>
      <point x="75" y="-20"/>
      <point x="75" y="31" type="curve" smooth="yes"/>
      <point x="75" y="82"/>
      <point x="136" y="115"/>
      <point x="195" y="115" type="curve" smooth="yes"/>
      <point x="251" y="115"/>
      <point x="316" y="84"/>
    </contour>
    <contour>
      <point x="91" y="212" type="curve" smooth="yes"/>
      <point x="91" y="254"/>
      <point x="141" y="280"/>
      <point x="195" y="280" type="curve" smooth="yes"/>
      <point x="248" y="280"/>
      <point x="300" y="254"/>
      <point x="300" y="213" type="curve" smooth="yes"/>
      <point x="300" y="170"/>
      <point x="244" y="145"/>
      <point x="195" y="145" type="curve" smooth="yes"/>
      <point x="147" y="145"/>
      <point x="91" y="169"/>
    </contour>
  </outline>
</glyph>
<glyph name="uni20B9" format="1">
  <advance width="450"/>
  <unicode hex="20B9"/>
  <outline>
    <contour>
      <point x="411" y="606" type="line"/>
      <point x="300" y="606" type="line"/>
      <point x="283" y="633"/>
      <point x="262" y="658"/>
      <point x="235" y="676" type="curve"/>
      <point x="411" y="676" type="line"/>
      <point x="411" y="710" type="line"/>
      <point x="44" y="710" type="line"/>
      <point x="44" y="664" type="line"/>
      <point x="125" y="664" type="line" smooth="yes"/>
      <point x="170" y="664"/>
      <point x="211" y="641"/>
      <point x="240" y="606" type="curve"/>
      <point x="44" y="606" type="line"/>
      <point x="44" y="572" type="line"/>
      <point x="262" y="572" type="line"/>
      <point x="274" y="547"/>
      <point x="282" y="519"/>
      <point x="282" y="490" type="curve" smooth="yes"/>
      <point x="282" y="401"/>
      <point x="224" y="315"/>
      <point x="131" y="315" type="curve" smooth="yes"/>
      <point x="83" y="315" type="line"/>
      <point x="285" y="0" type="line"/>
      <point x="343" y="0" type="line"/>
      <point x="167" y="276" type="line"/>
      <point x="266" y="291"/>
      <point x="333" y="385"/>
      <point x="333" y="490" type="curve" smooth="yes"/>
      <point x="333" y="517"/>
      <point x="327" y="545"/>
      <point x="316" y="572" type="curve"/>
      <point x="411" y="572" type="line"/>
    </contour>
  </outline>
</glyph>
<glyph name="fiveeighths" format="1">
  <advance width="837"/>
  <unicode hex="215D"/>
  <outline>
    <contour>
      <point x="190" y="586" type="curve" smooth="yes"/>
      <point x="151" y="586"/>
      <point x="115" y="575"/>
      <point x="90" y="553" type="curve"/>
      <point x="125" y="695" type="line"/>
      <point x="316" y="695" type="line"/>
      <point x="316" y="730" type="line"/>
      <point x="98" y="730" type="line"/>
      <point x="94" y="707"/>
      <point x="55" y="551"/>
      <point x="46" y="509" type="curve"/>
      <point x="80" y="509" type="line"/>
      <point x="102" y="538"/>
      <point x="144" y="557"/>
      <point x="186" y="557" type="curve" smooth="yes"/>
      <point x="243" y="557"/>
      <point x="303" y="523"/>
      <point x="303" y="462" type="curve" smooth="yes"/>
      <point x="303" y="405"/>
      <point x="251" y="365"/>
      <point x="184" y="365" type="curve" smooth="yes"/>
      <point x="131" y="365"/>
      <point x="86" y="389"/>
      <point x="62" y="426" type="curve"/>
      <point x="37" y="408" type="line"/>
      <point x="63" y="362"/>
      <point x="118" y="332"/>
      <point x="182" y="332" type="curve" smooth="yes"/>
      <point x="268" y="332"/>
      <point x="339" y="384"/>
      <point x="339" y="462" type="curve" smooth="yes"/>
      <point x="339" y="535"/>
      <point x="273" y="586"/>
    </contour>
    <contour>
      <point x="147" y="-3" type="line"/>
      <point x="422" y="345" type="line"/>
      <point x="701" y="690" type="line"/>
      <point x="673" y="713" type="line"/>
      <point x="399" y="365" type="line"/>
      <point x="120" y="21" type="line"/>
    </contour>
    <contour>
      <point x="802" y="108" type="curve" smooth="yes"/>
      <point x="802" y="159"/>
      <point x="761" y="195"/>
      <point x="706" y="211" type="curve"/>
      <point x="750" y="225"/>
      <point x="786" y="254"/>
      <point x="786" y="295" type="curve" smooth="yes"/>
      <point x="786" y="357"/>
      <point x="714" y="393"/>
      <point x="646" y="393" type="curve" smooth="yes"/>
      <point x="578" y="393"/>
      <point x="505" y="357"/>
      <point x="505" y="294" type="curve" smooth="yes"/>
      <point x="505" y="253"/>
      <point x="542" y="225"/>
      <point x="584" y="211" type="curve"/>
      <point x="537" y="197"/>
      <point x="489" y="162"/>
      <point x="489" y="110" type="curve" smooth="yes"/>
      <point x="489" y="48"/>
      <point x="553" y="-4"/>
      <point x="644" y="-4" type="curve" smooth="yes"/>
      <point x="729" y="-4"/>
      <point x="802" y="41"/>
    </contour>
    <contour>
      <point x="766" y="112" type="curve" smooth="yes"/>
      <point x="766" y="62"/>
      <point x="705" y="30"/>
      <point x="646" y="30" type="curve" smooth="yes"/>
      <point x="590" y="30"/>
      <point x="525" y="60"/>
      <point x="525" y="111" type="curve" smooth="yes"/>
      <point x="525" y="162"/>
      <point x="586" y="195"/>
      <point x="645" y="195" type="curve" smooth="yes"/>
      <point x="701" y="195"/>
      <point x="766" y="164"/>
    </contour>
    <contour>
      <point x="541" y="292" type="curve" smooth="yes"/>
      <point x="541" y="334"/>
      <point x="591" y="360"/>
      <point x="645" y="360" type="curve" smooth="yes"/>
      <point x="698" y="360"/>
      <point x="750" y="334"/>
      <point x="750" y="293" type="curve" smooth="yes"/>
      <point x="750" y="250"/>
      <point x="694" y="225"/>
      <point x="645" y="225" type="curve" smooth="yes"/>
      <point x="597" y="225"/>
      <point x="541" y="249"/>
    </contour>
  </outline>
</glyph>
<glyph name="uni2215" format="1">
  <advance width="578"/>
  <unicode hex="2215"/>
  <outline>
    <contour>
      <point x="24" y="-3" type="line"/>
      <point x="586" y="687" type="line"/>
      <point x="554" y="713" type="line"/>
      <point x="-8" y="23" type="line"/>
    </contour>
  </outline>
</glyph>
<glyph name="c_t" format="1">
  <advance width="860"/>
  <outline>
    <contour>
      <point x="835" y="65" type="line"/>
      <point x="829" y="62"/>
      <point x="796" y="41"/>
      <point x="754" y="41" type="curve" smooth="yes"/>
      <point x="721" y="41"/>
      <point x="692" y="60"/>
      <point x="689" y="99" type="curve"/>
      <point x="689" y="479" type="line"/>
      <point x="810" y="479" type="line"/>
      <point x="810" y="520" type="line"/>
      <point x="689" y="520" type="line"/>
      <point x="688" y="656"/>
      <point x="690" y="749"/>
      <point x="536" y="749" type="curve" smooth="yes"/>
      <point x="443" y="749"/>
      <point x="392" y="689"/>
      <point x="392" y="612" type="curve" smooth="yes"/>
      <point x="392" y="561"/>
      <point x="419" y="518"/>
      <point x="440" y="484" type="curve"/>
      <point x="403" y="512"/>
      <point x="358" y="529"/>
      <point x="292" y="529" type="curve" smooth="yes"/>
      <point x="141" y="529"/>
      <point x="42" y="399"/>
      <point x="42" y="259" type="curve" smooth="yes"/>
      <point x="42" y="124"/>
      <point x="146" y="-10"/>
      <point x="298" y="-10" type="curve" smooth="yes"/>
      <point x="383" y="-10"/>
      <point x="480" y="35"/>
      <point x="510" y="117" type="curve"/>
      <point x="461" y="131" type="line"/>
      <point x="444" y="72"/>
      <point x="357" y="35"/>
      <point x="298" y="35" type="curve" smooth="yes"/>
      <point x="183" y="35"/>
      <point x="92" y="139"/>
      <point x="92" y="259" type="curve" smooth="yes"/>
      <point x="92" y="368"/>
      <point x="166" y="484"/>
      <point x="291" y="484" type="curve" smooth="yes"/>
      <point x="361" y="484"/>
      <point x="420" y="456"/>
      <point x="455" y="392" type="curve"/>
      <point x="504" y="408" type="line"/>
      <point x="488" y="442"/>
      <point x="422" y="540"/>
      <point x="422" y="610" type="curve" smooth="yes"/>
      <point x="422" y="669"/>
      <point x="455" y="718"/>
      <point x="526" y="718" type="curve" smooth="yes"/>
      <point x="636" y="718"/>
      <point x="638" y="675"/>
      <point x="639" y="520" type="curve"/>
      <point x="566" y="520" type="line"/>
      <point x="566" y="479" type="line"/>
      <point x="639" y="479" type="line"/>
      <point x="639" y="87" type="line" smooth="yes"/>
      <point x="639" y="27"/>
      <point x="687" y="-6"/>
      <point x="741" y="-6" type="curve" smooth="yes"/>
      <point x="797" y="-6"/>
      <point x="841" y="20"/>
      <point x="850" y="25" type="curve"/>
    </contour>
  </outline>
</glyph>
<glyph name="d.alt" format="1">
  <advance width="612"/>
  <outline>
    <contour>
      <point x="534" y="0" type="line"/>
      <point x="534" y="730" type="line"/>
      <point x="484" y="730" type="line"/>
      <point x="484" y="407" type="line"/>
      <point x="439" y="473"/>
      <point x="371" y="529"/>
      <point x="281" y="529" type="curve" smooth="yes"/>
      <point x="143" y="529"/>
      <point x="42" y="404"/>
      <point x="42" y="259" type="curve" smooth="yes"/>
      <point x="42" y="121"/>
      <point x="147" y="-10"/>
      <point x="292" y="-10" type="curve" smooth="yes"/>
      <point x="369" y="-10"/>
      <point x="443" y="35"/>
      <point x="484" y="101" type="curve"/>
      <point x="484" y="0" type="line"/>
    </contour>
    <contour>
      <point x="484" y="175" type="line"/>
      <point x="478" y="99"/>
      <point x="374" y="35"/>
      <point x="301" y="35" type="curve" smooth="yes"/>
      <point x="185" y="35"/>
      <point x="93" y="139"/>
      <point x="93" y="258" type="curve" smooth="yes"/>
      <point x="93" y="371"/>
      <point x="171" y="484"/>
      <point x="292" y="484" type="curve" smooth="yes"/>
      <point x="368" y="484"/>
      <point x="458" y="423"/>
      <point x="484" y="346" type="curve"/>
    </contour>
  </outline>
</glyph>
<glyph name="five.lnum" format="1">
  <advance width="554"/>
  <outline>
    <contour>
      <point x="280" y="449" type="curve" smooth="yes"/>
      <point x="216" y="449"/>
      <point x="158" y="425"/>
      <point x="119" y="382" type="curve"/>
      <point x="174" y="663" type="line"/>
      <point x="476" y="663" type="line"/>
      <point x="476" y="710" type="line"/>
      <point x="136" y="710" type="line"/>
      <point x="136" y="710"/>
      <point x="65" y="356"/>
      <point x="57" y="317" type="curve"/>
      <point x="106" y="317" type="line"/>
      <point x="144" y="372"/>
      <point x="208" y="404"/>
      <point x="275" y="404" type="curve" smooth="yes"/>
      <point x="378" y="404"/>
      <point x="460" y="329"/>
      <point x="460" y="223" type="curve" smooth="yes"/>
      <point x="460" y="113"/>
      <point x="376" y="36"/>
      <point x="269" y="36" type="curve" smooth="yes"/>
      <point x="188" y="36"/>
      <point x="115" y="82"/>
      <point x="79" y="151" type="curve"/>
      <point x="42" y="130" type="line"/>
      <point x="83" y="46"/>
      <point x="168" y="-10"/>
      <point x="269" y="-10" type="curve" smooth="yes"/>
      <point x="401" y="-10"/>
      <point x="511" y="84"/>
      <point x="511" y="224" type="curve" smooth="yes"/>
      <point x="511" y="356"/>
      <point x="408" y="449"/>
    </contour>
  </outline>
</glyph>
<glyph name="nine.numerator" format="1">
  <advance width="398"/>
  <outline>
    <contour>
      <point x="34" y="595" type="curve" smooth="yes"/>
      <point x="34" y="521"/>
      <point x="103" y="461"/>
      <point x="190" y="461" type="curve" smooth="yes"/>
      <point x="248" y="461"/>
      <point x="303" y="491"/>
      <point x="322" y="533" type="curve"/>
      <point x="322" y="424"/>
      <point x="269" y="361"/>
      <point x="191" y="361" type="curve" smooth="yes"/>
      <point x="140" y="361"/>
      <point x="97" y="386"/>
      <point x="79" y="423" type="curve"/>
      <point x="56" y="402" type="line"/>
      <point x="78" y="356"/>
      <point x="130" y="328"/>
      <point x="190" y="328" type="curve" smooth="yes"/>
      <point x="290" y="328"/>
      <point x="356" y="405"/>
      <point x="356" y="566" type="curve" smooth="yes"/>
      <point x="356" y="668"/>
      <point x="288" y="730"/>
      <point x="194" y="730" type="curve" smooth="yes"/>
      <point x="104" y="730"/>
      <point x="34" y="670"/>
    </contour>
    <contour>
      <point x="193" y="697" type="curve" smooth="yes"/>
      <point x="261" y="697"/>
      <point x="319" y="650"/>
      <point x="319" y="595" type="curve" smooth="yes"/>
      <point x="319" y="540"/>
      <point x="262" y="493"/>
      <point x="194" y="493" type="curve" smooth="yes"/>
      <point x="126" y="493"/>
      <point x="68" y="540"/>
      <point x="68" y="596" type="curve" smooth="yes"/>
      <point x="68" y="651"/>
      <point x="124" y="697"/>
    </contour>
  </outline>
</glyph>
